<svg width="700" height="700" viewBox="0 0 700 700" fill="none" xmlns="http://www.w3.org/2000/svg">
<rect width="700" height="700" rx="131.25" fill="#29526A"/>
<path d="M238.368 522.839C270.314 522.839 297.853 508.171 322.087 489.456H324.29L328.697 516.77H381.021V369.579C381.021 300.283 347.437 262.347 280.228 262.347C237.267 262.347 198.712 277.521 168.969 294.731L192.102 333.666C216.337 320.515 241.673 309.387 268.111 309.387C305.013 309.387 316.58 331.643 317.681 357.945C206.423 369.073 158.491 396.893 158.491 450.003C158.504 493.502 191.001 522.839 238.368 522.839ZM258.741 477.317C236.159 477.317 219.635 467.706 219.635 445.45C219.635 420.666 243.869 402.962 317.674 394.364V450.003C297.302 467.2 280.779 477.317 258.741 477.317ZM436.872 516.77H500.213V286.922H436.879L436.872 516.77ZM468.818 243.422C491.4 243.422 506.822 230.271 506.822 210.039C506.822 190.3 491.4 177.161 468.818 177.161C446.235 177.161 430.82 190.312 430.82 210.026C430.82 230.271 446.235 243.422 468.818 243.422Z" fill="#A2D8EB"/>
</svg>
