<svg width="413" height="149" viewBox="0 0 413 149" fill="none" xmlns="http://www.w3.org/2000/svg">
<path d="M239.727 69.6938C245.366 69.6791 250.81 67.804 255.069 64.4104L250.562 57.7181C247.878 59.7434 244.521 61.4175 240.879 61.4175C233.496 61.4175 228.318 55.6938 228.318 47.0642C228.318 38.3466 233.592 32.6207 241.167 32.6207C244.139 32.6207 246.536 33.7654 249.029 35.7886L254.399 29.1843C250.623 26.0329 245.693 24.3037 240.591 24.3412C228.029 24.3444 217.002 32.6218 217.002 47.0631C217.002 61.4175 226.878 69.6938 239.727 69.6938ZM274.862 69.6938C281.286 69.6938 285.889 66.7879 290.012 62.297H290.299L291.161 68.6371H300.175V25.4011H289.148V54.9861C285.6 59.2129 282.819 60.974 278.696 60.974C273.614 60.974 271.409 58.3323 271.409 51.2018V25.4011H260.383V52.5227C260.383 63.4418 264.792 69.6938 274.862 69.6938ZM330.324 69.6938C335.962 69.6791 341.407 67.804 345.666 64.4104L341.159 57.7181C338.474 59.7434 335.118 61.4165 331.475 61.4165C324.091 61.4165 318.914 55.6927 318.914 47.0631C318.914 38.3455 324.187 32.6196 331.762 32.6196C334.735 32.6196 337.132 33.7644 339.625 35.7875L344.995 29.1832C341.219 26.0319 336.289 24.3026 331.187 24.3401C318.626 24.3401 307.599 32.6175 307.599 47.0588C307.599 61.4175 317.475 69.6938 330.324 69.6938Z" fill="#A2D8EB"/>
<path d="M365.799 69.6942C371.36 69.6942 376.154 67.1405 380.373 63.8824H380.757L381.524 68.6375H390.633V43.0129C390.633 30.949 384.787 24.3447 373.086 24.3447C365.607 24.3447 358.895 26.9865 353.717 29.9825L357.744 36.7608C361.963 34.4713 366.374 32.5341 370.977 32.5341C377.401 32.5341 379.415 36.4086 379.606 40.9876C360.237 42.9248 351.893 47.768 351.893 57.014C351.895 64.5869 357.552 69.6942 365.799 69.6942ZM369.345 61.769C365.414 61.769 362.537 60.0959 362.537 56.2214C362.537 51.9066 366.756 48.8246 379.605 47.3277V57.014C376.059 60.0079 373.182 61.769 369.345 61.769ZM400.356 68.6375H411.383V28.623H400.358L400.356 68.6375ZM405.918 21.0501C409.849 21.0501 412.534 18.7606 412.534 15.2383C412.534 11.802 409.849 9.51464 405.918 9.51464C401.986 9.51464 399.303 11.8041 399.303 15.2362C399.303 18.7606 401.986 21.0501 405.918 21.0501Z" fill="#29526A"/>
<path d="M93.5518 141.39L43.4133 146.688L46.1487 130.991L0.000244141 95.0936L11.5857 88.7749L3.59642 60.556L31.1695 62.9082L37.461 53.6973L64.5846 74.7358L58.459 24.2667L74.6591 30.4246L93.3986 0.478252V0.00012207L93.5482 0.238769L93.6977 0.00012207V0.478252L112.437 30.4255L128.638 24.2667L122.513 74.7358L149.635 53.6939L155.927 62.9048L183.5 60.5527L175.511 88.7716L187.096 95.0903L140.951 130.988L143.687 146.685L93.5518 141.39Z" fill="#29526A"/>
<path d="M255.597 147.94H215.156V136.725L232.757 121.662C234.34 120.297 235.677 119.069 236.769 117.978C237.86 116.832 238.733 115.74 239.388 114.703C240.098 113.612 240.589 112.547 240.862 111.51C241.189 110.473 241.353 109.355 241.353 108.154V107.008C241.353 105.916 241.135 104.961 240.698 104.143C240.261 103.324 239.688 102.642 238.979 102.096C238.269 101.55 237.451 101.141 236.523 100.868C235.65 100.595 234.749 100.459 233.821 100.459C232.457 100.459 231.256 100.677 230.219 101.114C229.237 101.55 228.364 102.151 227.6 102.915C226.89 103.624 226.29 104.47 225.799 105.452C225.308 106.38 224.926 107.39 224.653 108.481L213.928 104.388C214.583 102.423 215.484 100.568 216.63 98.8214C217.776 97.0203 219.195 95.4649 220.887 94.1551C222.633 92.7907 224.68 91.7264 227.027 90.9624C229.374 90.1983 232.02 89.8163 234.968 89.8163C238.078 89.8163 240.835 90.2529 243.236 91.1261C245.637 91.9993 247.657 93.2 249.294 94.7281C250.986 96.2563 252.268 98.0846 253.141 100.213C254.015 102.287 254.451 104.552 254.451 107.008C254.451 109.464 254.042 111.701 253.223 113.721C252.405 115.74 251.286 117.65 249.867 119.451C248.502 121.198 246.893 122.862 245.037 124.445C243.181 126.028 241.244 127.638 239.225 129.275L228.582 137.625H255.597V147.94Z" fill="#A2D8EB"/>
<path d="M282.648 148.922C275.171 148.922 269.632 146.33 266.03 141.145C262.428 135.961 260.627 128.702 260.627 119.369C260.627 110.037 262.428 102.778 266.03 97.5934C269.632 92.4087 275.171 89.8163 282.648 89.8163C290.125 89.8163 295.665 92.4087 299.267 97.5934C302.869 102.778 304.67 110.037 304.67 119.369C304.67 128.702 302.869 135.961 299.267 141.145C295.665 146.33 290.125 148.922 282.648 148.922ZM282.648 138.526C285.923 138.526 288.188 137.325 289.443 134.924C290.698 132.522 291.326 129.139 291.326 124.772V113.966C291.326 109.6 290.698 106.216 289.443 103.815C288.188 101.414 285.923 100.213 282.648 100.213C279.374 100.213 277.109 101.414 275.853 103.815C274.598 106.216 273.97 109.6 273.97 113.966V124.772C273.97 129.139 274.598 132.522 275.853 134.924C277.109 137.325 279.374 138.526 282.648 138.526Z" fill="#A2D8EB"/>
<path d="M350.794 147.94H310.353V136.725L327.954 121.662C329.537 120.297 330.874 119.069 331.966 117.978C333.057 116.832 333.93 115.74 334.585 114.703C335.295 113.612 335.786 112.547 336.059 111.51C336.386 110.473 336.55 109.355 336.55 108.154V107.008C336.55 105.916 336.332 104.961 335.895 104.143C335.458 103.324 334.885 102.642 334.176 102.096C333.466 101.55 332.648 101.141 331.72 100.868C330.847 100.595 329.946 100.459 329.018 100.459C327.654 100.459 326.453 100.677 325.416 101.114C324.434 101.55 323.561 102.151 322.797 102.915C322.087 103.624 321.487 104.47 320.996 105.452C320.504 106.38 320.122 107.39 319.85 108.481L309.125 104.388C309.78 102.423 310.681 100.568 311.827 98.8214C312.973 97.0203 314.392 95.4649 316.084 94.1551C317.83 92.7907 319.877 91.7264 322.224 90.9624C324.57 90.1983 327.217 89.8163 330.164 89.8163C333.275 89.8163 336.031 90.2529 338.433 91.1261C340.834 91.9993 342.853 93.2 344.491 94.7281C346.183 96.2563 347.465 98.0846 348.338 100.213C349.212 102.287 349.648 104.552 349.648 107.008C349.648 109.464 349.239 111.701 348.42 113.721C347.602 115.74 346.483 117.65 345.064 119.451C343.699 121.198 342.089 122.862 340.234 124.445C338.378 126.028 336.441 127.638 334.421 129.275L323.779 137.625H350.794V147.94Z" fill="#A2D8EB"/>
<path d="M374.734 113.393C377.79 113.393 380 112.82 381.365 111.674C382.784 110.473 383.493 109 383.493 107.253V106.68C383.493 104.606 382.811 102.942 381.447 101.687C380.137 100.431 378.254 99.8037 375.798 99.8037C373.506 99.8037 371.35 100.404 369.331 101.605C367.311 102.751 365.592 104.415 364.173 106.598L356.478 99.3944C357.569 97.9754 358.743 96.6929 359.998 95.5468C361.253 94.3461 362.672 93.3364 364.255 92.5178C365.838 91.6446 367.612 90.9897 369.576 90.5531C371.541 90.0619 373.751 89.8163 376.207 89.8163C379.264 89.8163 382.02 90.171 384.476 90.8805C386.986 91.59 389.115 92.6269 390.861 93.9914C392.662 95.3012 394.026 96.8839 394.954 98.7395C395.937 100.595 396.428 102.669 396.428 104.961C396.428 106.762 396.128 108.4 395.527 109.873C394.982 111.347 394.19 112.629 393.153 113.721C392.171 114.812 391.025 115.713 389.715 116.422C388.405 117.077 387.013 117.541 385.54 117.814V118.305C387.232 118.633 388.787 119.178 390.206 119.942C391.68 120.652 392.935 121.58 393.972 122.726C395.063 123.872 395.909 125.236 396.51 126.819C397.11 128.347 397.41 130.094 397.41 132.058C397.41 134.623 396.892 136.943 395.855 139.017C394.818 141.091 393.344 142.864 391.434 144.338C389.524 145.812 387.232 146.958 384.557 147.776C381.883 148.54 378.936 148.922 375.716 148.922C372.824 148.922 370.259 148.622 368.021 148.022C365.783 147.422 363.819 146.63 362.127 145.648C360.489 144.611 359.043 143.438 357.788 142.128C356.587 140.818 355.523 139.426 354.595 137.953L363.682 130.912C364.937 133.259 366.465 135.196 368.266 136.725C370.122 138.198 372.605 138.935 375.716 138.935C378.5 138.935 380.655 138.253 382.183 136.888C383.766 135.469 384.557 133.559 384.557 131.158V130.667C384.557 128.32 383.657 126.573 381.856 125.427C380.11 124.227 377.681 123.626 374.57 123.626H369.413V113.393H374.734Z" fill="#A2D8EB"/>
</svg>
